<svg width="64" height="64" xmlns="http://www.w3.org/2000/svg">

 <g>
  <title>background</title>
  <rect fill="none" id="canvas_background" height="402" width="582" y="-1" x="-1"/>
 </g>
 <g>
  <title>Layer 1</title>
  <path fill="#ffffff" stroke="#ffffff" id="svg_2" d="m23.149,28.571l0.72,-0.36c3.17,-1.584 7.089,-1.585 10.262,0l0.714,0.358c0.564,0.282 1.195,0.431 1.824,0.431l0.26,0l0,-2l-0.26,0c-0.32,0 -0.642,-0.076 -0.928,-0.219l-0.714,-0.358c-3.728,-1.861 -8.328,-1.861 -12.051,-0.001l-0.722,0.361c-0.283,0.142 -0.603,0.217 -0.923,0.217l-0.26,0l0,2l0.26,0c0.63,0 1.259,-0.148 1.818,-0.429z"/>
  <path fill="#ffffff" stroke="#ffffff" id="svg_3" d="m45.143,25.308l-0.159,-0.045c0.004,-0.112 0.016,-0.222 0.016,-0.334c0,-2.156 -0.84,-4.183 -2.364,-5.707c-2.99,-2.99 -4.636,-6.965 -4.636,-11.193l0,-7.029l-18,0l0,7.029c0,4.228 -1.646,8.203 -4.636,11.192c-1.524,1.525 -2.364,3.552 -2.364,5.708c0,1.408 0.364,2.731 1,3.884l0,4.715c0,3.001 0.691,6.005 2,8.705l0,6.162c0,2.593 1.288,4.999 3.445,6.438l0.252,0.167l2.303,0l0,-10.308c0,-1.489 0.265,-2.943 0.748,-4.309c2.1,2.744 3.252,6.073 3.252,9.587l0,13.03l18,0l0,-13.029c0,-4.228 1.646,-8.203 4.636,-11.192c1.524,-1.525 2.364,-3.552 2.364,-5.708c0,-3.588 -2.408,-6.78 -5.857,-7.763zm-28.635,-4.374l6.023,0.072l3.425,-5.137l2.478,4.131l5.566,0l0,-2l-4.434,0l-2.014,-3.357l6.691,-1.673l-0.485,-1.94l-8.375,2.094l-3.913,5.87l-3.227,-0.039c2.427,-3.114 3.757,-6.914 3.757,-10.926l0,-5.029l14,0l0,5.029c0,4.762 1.854,9.239 5.222,12.606c1.147,1.148 1.778,2.672 1.778,4.294c0,3.347 -2.724,6.071 -6.071,6.071l-0.259,0c-0.938,0 -1.877,-0.222 -2.715,-0.641l-0.719,-0.359c-1.309,-0.654 -2.773,-1 -4.236,-1s-2.928,0.346 -4.236,1l-0.718,0.359c-0.838,0.419 -1.777,0.641 -2.715,0.641l-0.259,0c-3.348,0 -6.072,-2.724 -6.072,-6.071c0,-1.487 0.536,-2.888 1.508,-3.995zm3.492,23.758l0,8.055c-1.263,-1.083 -2,-2.665 -2,-4.353l0,-6.631l-0.105,-0.211c-1.24,-2.477 -1.895,-5.252 -1.895,-8.024l0,-2.328c0.874,0.708 1.899,1.231 3.017,1.526c-0.005,0.115 -0.017,0.23 -0.017,0.345c0,2.12 0.816,4.113 2.293,5.629c-0.178,0.321 -0.205,0.386 -0.222,0.428c-0.711,1.778 -1.071,3.65 -1.071,5.564zm27.222,-7.328c-3.368,3.367 -5.222,7.844 -5.222,12.607l0,11.029l-14,0l0,-11.029c0,-4.762 -1.854,-9.239 -5.222,-12.606c-1.147,-1.148 -1.778,-2.672 -1.778,-4.294c0,-0.025 0.003,-0.05 0.004,-0.075c0.023,0 0.045,0.003 0.068,0.003l0.259,0c1.247,0 2.496,-0.295 3.61,-0.852l0.718,-0.359c2.064,-1.032 4.619,-1.032 6.684,0l0.718,0.359c1.113,0.558 2.361,0.853 3.608,0.853l0.259,0c3.642,0 6.725,-2.426 7.726,-5.746c2.561,0.758 4.346,3.139 4.346,5.817c0,1.622 -0.631,3.146 -1.778,4.293z"/>
  <path fill="#ffffff" stroke="#ffffff" id="svg_4" d="m38.714,36.237c-2.795,1.118 -6.039,0.983 -8.73,-0.363l-1.537,-0.769l-0.895,1.789l1.537,0.769c1.524,0.762 3.208,1.19 4.91,1.293l0,4.544l-4,3l0,6.5l2,0l0,-5.5l2.906,-2.18l4.387,4.387l1.414,-1.414l-4.706,-4.707l0,-4.649c1.184,-0.116 2.343,-0.397 3.458,-0.843l2.914,-1.166l-0.743,-1.857l-2.915,1.166z"/>
 </g>
</svg>