<?xml version="1.0" ?><svg fill="none" height="1080" viewBox="0 0 1080 1080" width="1080" xmlns="http://www.w3.org/2000/svg"><path d="M408.991 815.19C406.362 814.008 403.33 813.691 400.345 814.482C283.95 844.748 219.683 853.913 187.406 850.925C170.918 849.398 167.335 845.121 166.672 843.908C165.873 842.444 165.089 838.054 169.8 827.627C174.201 817.887 181.825 806.329 191.168 793.355C194.777 788.343 198.734 783 202.772 777.548C208.703 769.54 214.809 761.294 220.249 753.51C229.536 740.221 238.27 726.386 243.329 713.376C248.237 700.757 250.91 685.712 243.074 672.533C242.992 672.391 242.908 672.25 242.82 672.111C214.29 624.849 198.167 570.94 198.167 513.726C198.167 329.156 367.039 177 578.667 177C790.295 177 959.167 329.156 959.167 513.726C959.167 698.296 790.295 850.452 578.667 850.452C517.639 850.452 460.03 837.739 408.991 815.19Z" stroke="url(#paint0_linear)" stroke-linecap="round" stroke-linejoin="round" stroke-width="26"/><path d="M523.113 435.192C525.87 432.733 529.953 432.481 532.991 434.584L636.573 506.263C638.877 507.858 641.848 508.13 644.405 506.981L769.151 450.914C777.409 447.203 784.509 457.908 777.877 464.071L645.443 587.157C642.495 589.897 637.969 590.02 634.877 587.444L531.982 501.736C529.465 499.639 525.923 499.289 523.043 500.853L395.647 570.056C387.298 574.591 379.413 563.381 386.503 557.056L523.113 435.192Z" fill="url(#paint1_linear)"/><defs><linearGradient gradientUnits="userSpaceOnUse" id="paint0_linear" x1="258" x2="870.5" y1="175" y2="835.5"><stop stop-color="#5199F5" stop-opacity="0.8"/><stop offset="1" stop-color="#1F7DF2"/></linearGradient><linearGradient gradientUnits="userSpaceOnUse" id="paint1_linear" x1="455.624" x2="701.437" y1="422.832" y2="590.524"><stop stop-color="#4E97F5" stop-opacity="0.74"/><stop offset="1" stop-color="#2781F3"/></linearGradient></defs></svg>