<svg width="32" height="32" xmlns="http://www.w3.org/2000/svg">

 <title/>
 <g>
  <title>background</title>
  <rect fill="none" id="canvas_background" height="402" width="582" y="-1" x="-1"/>
 </g>
 <g>
  <title>Layer 1</title>
  <path fill="#f9fbfc" id="svg_1" d="m24,22a1,1 0 0 1 -0.64,-0.23l-4.52,-3.77l-1.84,0a8,8 0 0 1 0,-16l6,0a8,8 0 0 1 2,15.74l0,3.26a1,1 0 0 1 -0.58,0.91a1,1 0 0 1 -0.42,0.09zm-7,-18a6,6 0 0 0 0,12l2.2,0a1,1 0 0 1 0.64,0.23l3.16,2.63l0,-1.94a1,1 0 0 1 0.86,-1a6,6 0 0 0 -0.86,-11.92l-6,0z" class="cls-1"/>
  <rect fill="#f9fbfc" id="svg_2" y="9" x="19" width="2" height="2" class="cls-1"/>
  <rect fill="#f9fbfc" id="svg_3" y="9" x="14" width="2" height="2" class="cls-1"/>
  <rect fill="#f9fbfc" id="svg_4" y="9" x="24" width="2" height="2" class="cls-1"/>
  <path fill="#f9fbfc" id="svg_5" d="m8,30a1,1 0 0 1 -0.42,-0.09a1,1 0 0 1 -0.58,-0.91l0,-3.26a8,8 0 0 1 -1.28,-15a1,1 0 1 1 0.82,1.82a6,6 0 0 0 1.6,11.4a1,1 0 0 1 0.86,1l0,1.94l3.16,-2.63a1,1 0 0 1 0.64,-0.27l2.2,0a5.94,5.94 0 0 0 4.29,-1.82a1,1 0 0 1 1.44,1.4a8,8 0 0 1 -5.73,2.42l-1.84,0l-4.52,3.77a1,1 0 0 1 -0.64,0.23z" class="cls-1"/>
 </g>
</svg>