<svg width="32" height="32" xmlns="http://www.w3.org/2000/svg">

 <g>
  <title>background</title>
  <rect fill="none" id="canvas_background" height="402" width="582" y="-1" x="-1"/>
 </g>
 <g>
  <title>Layer 1</title>
  <path stroke-miterlimit="10" stroke-linejoin="round" stroke-width="2" stroke="#ffffff" fill="none" id="svg_1" d="m22.3,19.3c0,0 -1.7,0 -2.8,-0.8c-2.1,-1.4 -2.2,-3.6 -0.6,-5.4s5.1,-2.6 5.1,-2.6l0,-3.5l-1.2,0.4c-5.8,1.7 -11,5.3 -14.8,10.2l0,0" class="st1"/>
  <path stroke-miterlimit="10" stroke-linejoin="round" stroke-width="2" stroke="#ffffff" fill="none" id="svg_2" d="m20.1,12.5c1.2,1.3 2.1,3 2.4,5.1c0.6,3.4 4.8,11.4 -4.3,11.4c-4.9,0 -13.2,-4.4 -13.2,-11.4c0,-4.4 3.1,-7.9 7.9,-7.9c1.3,0 2.5,0.2 3.6,0.6" class="st1"/>
  <path stroke-miterlimit="10" stroke-linejoin="round" stroke-width="2" stroke="#ffffff" fill="none" id="svg_3" d="m7,12.3l0,-3.5c0,-1 0.8,-1.8 1.8,-1.8l3.2,0l0,3.1" class="st1"/>
  <path stroke-miterlimit="10" stroke-linejoin="round" stroke-width="2" stroke="#ffffff" fill="none" id="svg_4" d="m12,10l0,-5.5c0,-0.8 0.7,-1.5 1.5,-1.5l0,0c0.8,0 1.5,0.7 1.5,1.5l0,5.5" class="st1"/>
  <path stroke-miterlimit="10" stroke-linejoin="round" stroke-width="2" stroke="#ffffff" fill="none" id="svg_5" d="m15,10l0,-3.5c0,-0.8 0.7,-1.5 1.5,-1.5l0,0c0.8,0 1.5,0.7 1.5,1.5l0,2.5" class="st1"/>
 </g>
</svg>