<svg width="512" height="512" xmlns="http://www.w3.org/2000/svg">

 <g>
  <title>background</title>
  <rect fill="none" id="canvas_background" height="402" width="582" y="-1" x="-1"/>
 </g>
 <g>
  <title>Layer 1</title>
  <path fill="#0a3f79" id="svg_1" d="m256,6c-138.1,0 -250,111.9 -250,250s111.9,250 250,250s250,-111.9 250,-250s-111.9,-250 -250,-250zm-32.3,28.5c-24.3,30.2 -43.2,63.9 -56.2,99.7c-26,-7 -51.4,-17.2 -75.5,-30.6c34,-36.5 80,-61.7 131.7,-69.1zm-142.9,82.2c25.9,14.7 53.2,25.9 81.3,33.5c-9.7,31.2 -15.1,63.9 -15.9,97.3l-113.9,0c1.8,-49.3 19.7,-94.6 48.5,-130.8zm-48.5,147.7l113.9,0c0.8,33.5 6.2,66.1 15.9,97.3c-28.1,7.7 -55.4,18.8 -81.3,33.5c-28.8,-36.1 -46.7,-81.4 -48.5,-130.8zm59.7,143.9c24.1,-13.3 49.4,-23.5 75.5,-30.6c13.1,35.9 32,69.5 56.2,99.7c-51.7,-7.4 -97.7,-32.5 -131.7,-69.1zm155.6,71.3c-27.8,-31.5 -49.2,-67.3 -63.6,-105.9c20.9,-4.5 42.2,-7.1 63.6,-7.6l0,113.5zm0,-130.3c-23.2,0.5 -46.3,3.4 -69.1,8.4c-9.4,-29.9 -14.6,-61.2 -15.4,-93.3l84.5,0l0,84.9zm0,-101.7l-84.5,0c0.8,-32.1 6,-63.4 15.4,-93.3c22.7,5.1 45.9,7.9 69.1,8.4l0,84.9zm0,-101.8c-21.3,-0.5 -42.6,-3.1 -63.6,-7.6c14.3,-38.6 35.7,-74.4 63.6,-105.9l0,113.5zm232.1,101.8l-114,0c-0.8,-32.9 -6.1,-65.6 -15.9,-97.3c28.2,-7.7 55.6,-18.9 81.5,-33.6c28.7,36.2 46.6,81.5 48.4,130.9zm-59.7,-143.9c-24.1,13.4 -49.6,23.6 -75.7,30.6c-12.9,-35.4 -31.6,-69.2 -56.1,-99.8c51.8,7.4 97.8,32.6 131.8,69.2zm-155.5,-71.3c28.2,31.9 49.3,67.9 63.4,105.9c-20.9,4.5 -42.1,7 -63.4,7.6l0,-113.5zm0,130.3c23.1,-0.5 46.2,-3.3 68.9,-8.4c9.5,30.3 14.7,61.7 15.4,93.2l-84.3,0l0,-84.8zm0,101.7l84.3,0c-0.8,31.5 -5.9,62.9 -15.4,93.2c-22.7,-5 -45.7,-7.8 -68.9,-8.4l0,-84.8zm0,101.8c21.3,0.5 42.5,3 63.4,7.6c-14.1,38 -35.2,74 -63.4,105.9l0,-113.5zm23.8,111.3c24.5,-30.6 43.2,-64.4 56.1,-99.8c26.1,7 51.5,17.2 75.7,30.6c-34.1,36.6 -80.1,61.8 -131.8,69.2zm142.9,-82.2c-25.9,-14.7 -53.3,-25.9 -81.5,-33.6c9.8,-31.6 15.1,-64.4 15.9,-97.3l114,0c-1.7,49.4 -19.6,94.7 -48.4,130.9z"/>
 </g>
</svg>