<svg width="40" height="40" xmlns="http://www.w3.org/2000/svg">

 <g>
  <title>background</title>
  <rect fill="none" id="canvas_background" height="402" width="582" y="-1" x="-1"/>
 </g>
 <g>
  <title>Layer 1</title>
  <path fill="#ffffff" id="svg_2" d="m15.1,30.5c-0.3,0 -0.7,-0.1 -1,-0.2c-0.7,-0.4 -1.1,-1.1 -1.1,-1.9l0,-17.6c0,-0.8 0.4,-1.5 1.1,-1.9c0.7,-0.4 1.5,-0.3 2.2,0.1l3.6,2.5c0.5,0.3 0.6,0.9 0.3,1.4c-0.3,0.5 -0.9,0.6 -1.4,0.3l-3.6,-2.5c0,0 -0.1,0 -0.1,0c-0.1,0 -0.1,0.1 -0.1,0.1l0,17.6c0,0 0,0.1 0.1,0.1c0.1,0 0.1,0 0.1,0l12.8,-8.8l0,-0.2l-4.5,-3.1c-0.5,-0.3 -0.6,-0.9 -0.3,-1.4c0.3,-0.5 0.9,-0.6 1.4,-0.3l4.5,3.1c0.6,0.4 0.9,1 0.9,1.7s-0.3,1.3 -0.9,1.7l-12.8,8.8c-0.3,0.4 -0.7,0.5 -1.2,0.5z"/>
  <path fill="#ffffff" id="svg_4" d="m19.7,40c-11,0 -20,-9 -20,-20s9,-20 20,-20s20,9 20,20s-9,20 -20,20zm0,-38c-9.9,0 -18,8.1 -18,18s8.1,18 18,18s18,-8.1 18,-18s-8.1,-18 -18,-18z"/>
 </g>
</svg>